<?xml version="1.0" encoding="UTF-8"?>
<svg xmlns="http://www.w3.org/2000/svg" viewBox="0 0 135.36 58.48">
  <defs>
    <style>
      .cls-1, .cls-2 {
        fill: #004928;
      }

      .cls-3 {
        fill: #a7d05e;
        stroke: #004928;
      }

      .cls-3, .cls-2 {
        stroke-miterlimit: 10;
      }

      .cls-2 {
        stroke: #fff;
        stroke-width: .75px;
      }
    </style>
  </defs>
  <g id="Layer_1" data-name="Layer 1">
    <g>
      <path class="cls-1" d="M10.92,36.17c.5.83,3.53,8.39,3.53,8.39,0,0,.7-3.36,1.3-5.66.8-3.13,1.46-3.93,3.36-3.93,3.06,0,5.16.67,5.93,2.33.73,1.63,3.16,9.92,3.16,15.92,0,4.43-5.13,4.63-6.39,4.63s-1.6-.53-1.6-1.17.63-2.43.63-5.03-.5-5.83-1.13-5.83-1.8,5.93-1.8,8.66c0,2.36-1.3,2.6-2.6,2.6-2.3,0-3.96-.43-4.1-1.83-.3-3.36-1.3-7.92-2.16-7.92s-.83,2.36-.83,4.56c0,3.6.6,4.16.6,5.19,0,.96-1.2,1.4-2.93,1.4-3.6,0-5.89-.97-5.89-3.36,0-3.36,1.27-13.52,2.06-16.35.67-2.4.8-2.86,2.2-3.26,1.37-.37,3.5-.63,4.56-.63.93,0,1.56.43,2.1,1.3Z"/>
      <path class="cls-1" d="M48.45,45.26c2.1,6.66,2.13,9.76,2.13,10.92s-1,1.5-2.4,1.5-3-.07-4.33-.27c-1.3-.2-1.73-.77-1.73-2.3,0-.57.1-1.13.1-1.63,0-.53-.27-.87-.83-.87-1.56,0-3.53.27-3.53,1.73,0,.73.2,1.3.2,2.3s-.53,1-1.23,1.17c-1.67.37-3.96.47-5.26.47-.9,0-1.8-.77-1.8-2.26s.1-5.59,2.06-11.62c1.86-5.76,2.83-8.32,4.33-8.92,1.46-.6,4.1-.93,5.96-.93,1.76,0,4.23,4.1,6.33,10.72ZM38.23,47.55c0,.43.07.57.63.57,1.2,0,2.66-.5,2.66-.9,0-1.17-1.43-3.83-2-3.83-.5,0-1.3,3.6-1.3,4.16Z"/>
      <path class="cls-1" d="M67.89,39.16c0,2.16-1.46,2.86-2.6,3.23-1.56.5-2.63.5-2.63,2.13,0,2.26.27,5.86.57,7.52.3,1.63.77,2.43.77,3.4,0,1.17-2.76,2.4-5.56,2.4s-3.63-1.4-3.63-2.5.97-5.79.97-9.76c0-1.66-.23-2.7-.9-2.7-1.7,0-3.6.83-4.4.83s-1.33-.6-1.33-1.93c0-3.76.97-6.53,2.96-6.53,1.76,0,3.33.27,5.76.27,4.76,0,6.93-1.33,8.09-1.33.9,0,1.93,2.46,1.93,4.96Z"/>
      <path class="cls-1" d="M89.07,41.03c0,2.56-2.9,4.66-5.13,4.66-.67,0-1.13-.37-1.13-.8,0-2.06-.5-3.2-1.73-3.2s-2.93,1.2-2.93,4.89c0,2.73,1.3,4.89,3.43,4.89,2.43,0,3.9-2.4,4.89-2.4s3.86,2.16,3.86,4c0,1.2-3.53,5.06-9.42,5.06-7.69,0-11.55-4.86-11.55-11.19,0-7.62,5.83-12.19,11.62-12.19,4.89,0,8.09,2.73,8.09,6.26Z"/>
      <path class="cls-1" d="M106.35,34.97c2.03,0,4.7.83,5.19,2.73.57,2.1,1.03,6.43,1.03,10.89,0,6.89-.9,9.72-3.46,9.72-2.06,0-4.89-.3-4.89-1.63s.23-2.93.23-4.39-.47-1.7-.97-1.7c-.47,0-2.93.37-2.93,1.57,0,1.76.63,3.13.63,4.03s-1.4,1.9-3.9,1.9-3.8-.53-4.2-1.7c-.4-1.17-1.56-5.89-1.56-12.59,0-1.56.2-6.23,1.1-7.12s4.36-1.73,5.76-1.73,1.63.3,1.63.83c0,1.17-.23,2.26-.23,4.53s.1,3.36,1.4,3.36,2.6-.33,2.6-2.26-.53-3.96-.53-4.86c0-.67,1.03-1.57,3.1-1.57Z"/>
      <path class="cls-1" d="M133.23,45.26c2.1,6.66,2.13,9.76,2.13,10.92s-1,1.5-2.4,1.5-3-.07-4.33-.27c-1.3-.2-1.73-.77-1.73-2.3,0-.57.1-1.13.1-1.63,0-.53-.27-.87-.83-.87-1.56,0-3.53.27-3.53,1.73,0,.73.2,1.3.2,2.3s-.53,1-1.23,1.17c-1.67.37-3.96.47-5.26.47-.9,0-1.8-.77-1.8-2.26s.1-5.59,2.06-11.62c1.86-5.76,2.83-8.32,4.33-8.92,1.46-.6,4.09-.93,5.96-.93,1.76,0,4.23,4.1,6.33,10.72ZM123.01,47.55c0,.43.07.57.63.57,1.2,0,2.66-.5,2.66-.9,0-1.17-1.43-3.83-2-3.83-.5,0-1.3,3.6-1.3,4.16Z"/>
    </g>
    <g>
      <path class="cls-1" d="M13.57,19.94c-.6,0-.8-.2-.91-.6-.23-.86-.69-1.54-1.46-1.54-.89,0-1.97,1.09-1.97,4.14,0,3.37,1.46,5,2.49,5,.83,0,1.34-.71,1.34-1.31,0-.51-.34-.89-.8-1.09-.54-.23-.91-.66-.91-1.34,0-.49.2-.77.89-1.29.63-.49,2.77-1.17,4.4-1.17,1.37,0,2.49,1.14,2.49,3.11,0,4.68-2.89,8.08-8.17,8.08S1.34,28.65,1.34,22.65c0-6.51,4-10.83,9.97-10.83,4.57,0,6.77,2.71,6.77,4.26s-3.23,3.86-4.51,3.86Z"/>
      <path class="cls-1" d="M38.91,21.19c0,6.66-4.06,10.68-9.46,10.68s-9.2-3.51-9.2-9.51c0-7.23,4.66-10.88,9.43-10.88s9.23,3.29,9.23,9.71ZM27.45,22.08c0,2.63,1.08,4.71,2.23,4.71,1.34,0,2.2-2.46,2.2-5.2,0-2.97-1-4.86-2.2-4.86-1.06,0-2.23,2-2.23,5.34Z"/>
      <path class="cls-1" d="M57.47,19.94c-.6,0-.8-.2-.91-.6-.23-.86-.69-1.54-1.46-1.54-.89,0-1.97,1.09-1.97,4.14,0,3.37,1.46,5,2.48,5,.83,0,1.34-.71,1.34-1.31,0-.51-.34-.89-.8-1.09-.54-.23-.91-.66-.91-1.34,0-.49.2-.77.89-1.29.63-.49,2.77-1.17,4.4-1.17,1.37,0,2.48,1.14,2.48,3.11,0,4.68-2.88,8.08-8.17,8.08s-9.6-3.29-9.6-9.28c0-6.51,4-10.83,9.97-10.83,4.57,0,6.77,2.71,6.77,4.26s-3.23,3.86-4.51,3.86Z"/>
      <path class="cls-1" d="M82.81,21.19c0,6.66-4.06,10.68-9.46,10.68s-9.2-3.51-9.2-9.51c0-7.23,4.66-10.88,9.43-10.88s9.23,3.29,9.23,9.71ZM71.36,22.08c0,2.63,1.08,4.71,2.23,4.71,1.34,0,2.2-2.46,2.2-5.2,0-2.97-1-4.86-2.2-4.86-1.06,0-2.23,2-2.23,5.34Z"/>
    </g>
  </g>
  <g id="Layer_2" data-name="Layer 2">
    <g>
      <g>
        <path class="cls-3" d="M115.68,40.97c1.13-.17,1.91-1.23,1.74-2.36l-.28-1.88-.65-4.45c-.07-.49.19-.96.64-1.17.93-.44,1.75-1,2.41-1.68.19-.19.44-.47.61-.74.16-.26.43-.43.73-.49,5.83-1.12,9.64-3.46,9.42-5.79-.12-1.34-1.68-2.42-4.12-3.09-.64-.18-.98-.86-.74-1.47,2.27-5.91,2.27-11.18-.21-12.37-1.28-.61-2.99-.04-4.8,1.42-.7.56-1.75.13-1.81-.77-.18-2.94-1.1-5.03-2.68-5.52-2-.61-4.55,1.47-6.69,5.1-.38.64-1.25.73-1.76.2-1.42-1.46-3.03-2.22-4.61-1.99-3.95.58-6.26,7.07-5.17,14.5.32,2.16.88,4.16,1.63,5.9h0c.21.51.04,1.09-.41,1.39l-2.24,1.49c-.04-.09-.09-.19-.14-.28-1.5-2.82-3.91-4.46-5.38-3.68-1.47.78-1.46,3.7.04,6.52.15.27.3.54.46.79v.02s.17.23.17.23l.04.06,2.19,3.29c.34.51,1.03.65,1.54.31l6.88-4.58c.39-.26.89-.25,1.26.03.35.25.71.5,1.09.73.45.27.9.55,1.4.76,1.17.48,2.46.78,3.79.9.51.05.93.43,1.01.94l.21,1.44c.08.57-.28,1.1-.84,1.24-2.64.64-4.5,2.16-4.28,3.64.24,1.65,3,2.62,6.16,2.16l3.4-.71Z"/>
        <path class="cls-1" d="M107.4,18.66c2.41,0,2.42-3.75,0-3.75s-2.42,3.75,0,3.75h0Z"/>
        <path class="cls-1" d="M112.91,19.95c2.41,0,2.42-3.75,0-3.75s-2.42,3.75,0,3.75h0Z"/>
      </g>
      <polygon class="cls-1" points="99.7 24.1 103.12 29.37 102.15 29.99 99.3 25.47 99.7 24.1"/>
      <rect class="cls-1" x="111.02" y="32.26" width="5.61" height="1.04" transform="translate(-3.67 17.78) rotate(-8.79)"/>
    </g>
    <path class="cls-1" d="M107.92,24.69c.7.39,1.42.73,2.17,1s1.49.5,2.25.42,1.44-.38,1.92-.96.73-1.3.89-2.03c.08-.4-.12-.81-.52-.92-.37-.1-.84.13-.92.52-.1.47-.21.98-.5,1.37s-.74.53-1.16.53c-.59,0-1.17-.23-1.71-.44-.57-.22-1.13-.49-1.66-.79-.84-.47-1.6.82-.76,1.3h0Z"/>
    <ellipse class="cls-2" cx="108.24" cy="16.34" rx=".22" ry=".24"/>
    <ellipse class="cls-2" cx="113.91" cy="17.65" rx=".17" ry=".19"/>
  </g>
</svg>